<?xml version="1.0" encoding="utf-8"?>
<!-- Generator: Adobe Illustrator 26.5.0, SVG Export Plug-In . SVG Version: 6.00 Build 0)  -->
<svg version="1.1" id="Capa_2_00000101099311723189888870000008964860742976209342_"
	 xmlns="http://www.w3.org/2000/svg" xmlns:xlink="http://www.w3.org/1999/xlink" x="0px" y="0px" viewBox="0 0 354.3 66"
	 style="enable-background:new 0 0 354.3 66;" xml:space="preserve">
<style type="text/css">
	.st0{fill:#9B5832;}
	.st1{enable-background:new    ;}
	.st2{fill:#FFFFFF;}
</style>
<g id="Capa_1-2">
	<g>
		<rect y="0" class="st0" width="354.3" height="66"/>
	</g>
</g>
<g class="st1">
	<path class="st2" d="M99.1,24.4v20.2h-2.4V30.9l-6.7,8.5h-0.2L83,30.9v13.6h-2.4V24.4h0.3l9,11.5l9-11.5H99.1z"/>
	<path class="st2" d="M118.1,42.4v2.1h-12V24.6H118v2.1h-9.5v6.1h8.8V35h-8.8v7.4H118.1z"/>
	<path class="st2" d="M134.5,44.5h-2.4V24.6h2.4V44.5z"/>
	<path class="st2" d="M156.9,24.6v20.2h-0.1l-12.9-14.5v14.2h-2.4V24.4h0.1l12.9,14.5V24.6H156.9z"/>
	<path class="st2" d="M178.1,26.8h-6.6v17.8h-2.4V26.8h-6.6v-2.1h15.6V26.8z"/>
	<path class="st2" d="M195.8,42.4v2.1h-12V24.6h11.9v2.1h-9.5v6.1h8.8V35h-8.8v7.4H195.8z"/>
	<path class="st2" d="M214,34.9c-0.8,1.1-2,1.9-3.6,2.3l4.8,7.3h-2.8l-4.5-6.9h-0.6c-1,0-2-0.1-3.1-0.2v7.1h-2.4V24.6
		c0.6-0.1,1.4-0.1,2.5-0.2c1.1-0.1,2-0.1,2.8-0.1c2.8,0,4.8,0.5,6.2,1.6c1.4,1,2,2.6,2,4.7C215.2,32.4,214.8,33.8,214,34.9z
		 M204.2,35.2c1,0.1,2,0.2,2.9,0.2c3.8,0,5.7-1.6,5.7-4.8c0-1-0.2-1.8-0.6-2.4c-0.4-0.6-1.1-1-2.1-1.2s-2.3-0.4-4-0.4
		c-0.6,0-1.2,0-1.9,0.1V35.2z"/>
	<path class="st2" d="M233.2,42.4v2.1h-12V24.6H233v2.1h-9.5v6.1h8.8V35h-8.8v7.4H233.2z"/>
	<path class="st2" d="M240.6,44.3c-1.1-0.3-2-0.8-2.8-1.4l1.4-1.8c1.4,1,3,1.5,4.8,1.5c1.3,0,2.4-0.3,3.3-0.8
		c0.8-0.5,1.3-1.3,1.3-2.3c0-0.6-0.2-1.1-0.5-1.5c-0.3-0.4-0.8-0.9-1.4-1.2c-0.6-0.4-1.4-0.8-2.4-1.3l-1-0.5c-1-0.5-1.9-1-2.6-1.4
		c-0.7-0.5-1.3-1-1.8-1.8c-0.5-0.7-0.8-1.6-0.8-2.6c0-1.1,0.3-2,0.9-2.7c0.6-0.7,1.4-1.3,2.4-1.6c1-0.3,2.1-0.5,3.3-0.5
		c1.1,0,2.2,0.1,3.2,0.4c1,0.3,1.8,0.7,2.5,1.2l-1.3,1.8c-1.3-0.8-2.7-1.2-4.4-1.2c-1.3,0-2.3,0.2-3,0.7c-0.7,0.5-1.1,1.1-1.1,2
		c0,0.9,0.3,1.6,1,2.2c0.7,0.6,1.5,1.1,2.6,1.6l0.9,0.4c1.4,0.7,2.4,1.3,3.2,1.8s1.4,1.1,1.9,1.8c0.5,0.7,0.7,1.5,0.7,2.5
		c0,1.1-0.3,2.1-1,2.9c-0.6,0.8-1.5,1.4-2.6,1.7c-1.1,0.4-2.2,0.6-3.4,0.6C242.8,44.8,241.7,44.6,240.6,44.3z"/>
	<path class="st2" d="M268.1,39.8h-9l-2,4.8h-2.6l9-20.4h0.2l9,20.4h-2.6L268.1,39.8z M267.2,37.6l-3.6-8.3l-3.6,8.3H267.2z"/>
</g>
</svg>
