<?xml version="1.0" encoding="UTF-8"?><svg id="Capa_2" xmlns="http://www.w3.org/2000/svg" viewBox="0 0 520.82 340.16"><defs><style>.cls-1,.cls-2{fill:#f8f8f8;}.cls-2{fill-rule:evenodd;}</style></defs><g id="MARCA_POSITIVO_P2718"><g><path class="cls-1" d="M348.2,48.15c-16.44,8.05-32.88,16.09-49.31,24.13h0c10.02,3.83,20.04,7.68,30.05,11.54,6.2,2.39,13.55,5.39,16.26,12.72,2.78,7.52-1.31,14.23-4.93,19.9-5.47,8.57-10.94,17.13-16.41,25.7-19.47,30.48-38.94,60.97-58.48,91.41-.03-9.4-.06-18.8-.07-28.2v-.02c7.47-23.5,14.76-47.05,21.8-70.69,2-6.71,3.97-13.43,5.92-20.15,1.17-4.05,.42-6.48-3.48-8.41-9.96-4.92-19.92-9.83-29.88-14.73-9.96,4.9-19.92,9.81-29.88,14.73-3.9,1.93-4.66,4.36-3.48,8.41,1.95,6.73,3.93,13.44,5.92,20.15,7.03,23.64,14.33,47.19,21.8,70.69v.02c-.02,9.4-.04,18.8-.08,28.2-19.54-30.44-39.01-60.92-58.48-91.41-5.47-8.57-10.94-17.13-16.41-25.7-3.62-5.66-7.71-12.37-4.93-19.9,2.71-7.33,10.06-10.33,16.26-12.72,10.01-3.86,20.03-7.71,30.05-11.55h0c-16.44-8.04-32.88-16.09-49.31-24.13l-.02-.02c5.13,8.59,10.25,17.18,15.37,25.77-8.48,3.25-16.95,6.51-25.42,9.77C143.23,55.79,125.42,27.92,107.68,0c50.6,17.95,101.15,36.03,151.97,53.38C310.46,36.03,361.01,17.95,411.62,0c-17.74,27.92-35.55,55.79-53.35,83.67-8.47-3.26-16.95-6.52-25.42-9.77,5.12-8.59,10.25-17.18,15.37-25.77"/><g><path class="cls-2" d="M335.66,301.75v11.53h62.04c1.31,0,2.38-.99,2.38-2.2v-7.13c0-1.22-1.07-2.2-2.38-2.2h-62.04Zm-15.64,38.37l-.05-49.13h80.43c7.47,0,13.53,4.57,13.53,11.49v10.17c0,7.1-4.73,11.91-9.51,11.91l10.7,15.6h-17.52l-9.23-14.98h-52.72v14.98l-15.64-.03Z"/><path class="cls-1" d="M93.97,340.16H13.53c-7.47,0-13.53-5.61-13.53-12.53v-24.11c0-6.92,6.06-12.53,13.53-12.53H93.97v13.45H16.23c-1.31,0-2.38,.99-2.38,2.2v17.85c0,1.22,1.07,2.2,2.38,2.2H93.97v13.46Zm106.71-49.16v36.64c0,6.92-6.06,12.53-13.53,12.53H120.13c-7.47,0-13.53-5.61-13.53-12.53v-36.64h16.17v33.51c0,1.22,1.07,2.2,2.38,2.2h56.99c1.31,0,2.38-.99,2.38-2.2v-33.51h16.17Zm304.94,22.26v-11.5h-61.41c-1.31,0-2.38,.99-2.38,2.2v9.29c0-.16,41.87-.05,63.79,0Zm15.2,26.9h-15.2v-14.98h-63.66v14.98h-15.2l-.13-36.64c0-6.92,6.06-12.53,13.53-12.53h80.43c.14,.1,.22,.05,.23,0v49.16Zm-292.42-26.87h62.76c1.31,0,2.38-.99,2.38-2.2v-7.13c0-1.22-1.07-2.2-2.38-2.2h-62.76v11.53Zm65.46-22.3c9.94,0,13.53,4.57,13.53,11.49v10.17c0,6.92-3.04,12.53-13.53,12.53h-65.46v14.98h-15.2v-49.16h80.67Z"/></g></g></g></svg>