<svg xmlns="http://www.w3.org/2000/svg" viewBox="0 0 93.991 13.868">
  <g id="Grupo_1446" data-name="Grupo 1446" transform="translate(12766.353 8291.622)">
    <path id="Trazado_1740" data-name="Trazado 1740" d="M194.344,41.552c0,.993-.436,2.649-2.1,2.649h-.057a2.532,2.532,0,0,1-2.54-2.54V41.6a5.85,5.85,0,0,1-.057-.993v-.166h-.388v.109a5.249,5.249,0,0,0,.057.941,3.159,3.159,0,0,0,3.15,3.2h.275a3.962,3.962,0,0,0,4.144-3.978c0-.383.057-.771.057-1.159V31.94H194.4Z" transform="translate(-12927.712 -8323.064)"/>
    <path id="Trazado_1741" data-name="Trazado 1741" d="M174.39,39.766q0,4.313-3.316,4.313c-2.209,0-2.763-2.213-2.763-4.091V31.81H165.88v7.925c0,1.821.606,4.971,4.584,4.971,2.928,0,4.31-1.656,4.31-5.085V31.867h-.384Z" transform="translate(-12914.549 -8322.992)"/>
    <path id="Trazado_1742" data-name="Trazado 1742" d="M205.234,37.144H209.6V36.7h-4.366V31.728h4.588V31.34H202.75V43.993h7.621v-.388h-5.137Z" transform="translate(-12931.141 -8322.465)"/>
    <path id="Trazado_1743" data-name="Trazado 1743" d="M128.946,30.2h-.275l-4.7,11-5.582-10.888v-.052h-.331L115.63,43.349h.388l1.712-9.337,5.081,10,.057.057h.275l4.2-9.834,1.547,9.115h2.431L129,30.309Z" transform="translate(-12881.983 -8321.822)"/>
    <path id="Trazado_1744" data-name="Trazado 1744" d="M294.61,31.532h-.776a6.344,6.344,0,0,0-6.353,6.135V38h0a6.257,6.257,0,0,0,5.856,6.536h.719a6.383,6.383,0,0,0,6.575-6.1h0v-.388a6.292,6.292,0,0,0-6.022-6.536Zm-.5,12.6c-3.486,0-3.978-3.812-3.978-6.078,0-2.815,1.05-6.074,3.978-6.074,2.488,0,3.922,2.209,3.922,6.074S296.536,44.128,294.109,44.128Z" transform="translate(-12983.16 -8322.823)"/>
    <path id="Trazado_1745" data-name="Trazado 1745" d="M242.437,43.029c-.662-1.6-1.6-4.035-4.253-4.645,1.821-.274,3.486-1.268,3.486-3.259s-1.769-3.316-4.475-3.316H233.6V44.528h2.431V32.254h.436c1.6,0,2.484,1.547,2.484,3.05a2.8,2.8,0,0,1-2.261,2.928h-.113v.388h.113c1.987.5,2.763,2.928,3.259,4.531a6.3,6.3,0,0,0,.5,1.307l.052.057h2.71l-.166-.222A3.831,3.831,0,0,1,242.437,43.029Z" transform="translate(-12952.764 -8322.992)"/>
    <path id="Trazado_1746" data-name="Trazado 1746" d="M317.721,31.34l-3.7,7.019L310.593,31.4l-.052-.057H308l3.865,7.681v4.971h2.266V38.965l4.035-7.625Z" transform="translate(-12990.528 -8322.465)"/>
    <path id="Trazado_1747" data-name="Trazado 1747" d="M258.048,36.7h-4.754V31.34H250.81V43.993h2.484V37.144h4.754v6.849h2.484V31.34h-2.484Z" transform="translate(-12958.26 -8322.465)"/>
  </g>
</svg>