<svg id="suum" xmlns="http://www.w3.org/2000/svg" width="79.712" height="13.823" viewBox="0 0 79.712 13.823">
  <path id="Trazado_37" data-name="Trazado 37" d="M0,8.552H.685a12.882,12.882,0,0,0,.534,2.6,3.351,3.351,0,0,0,1.069,1.591,3.036,3.036,0,0,0,1.939.572A2.5,2.5,0,0,0,5.3,13.071a2,2,0,0,0,.851-.783,2.617,2.617,0,0,0,.336-1.4A2.266,2.266,0,0,0,6.136,9.64a3.946,3.946,0,0,0-.926-.995q-.572-.441-1.6-1.088-1.255-.8-1.921-1.305A4.691,4.691,0,0,1,.561,5.01,3.185,3.185,0,0,1,.1,3.282a3.132,3.132,0,0,1,.51-1.821A3.068,3.068,0,0,1,1.972.361,4.817,4.817,0,0,1,3.868,0a4.3,4.3,0,0,1,1.61.286A4.529,4.529,0,0,1,6.64.932a.818.818,0,0,0,.448.211c.3,0,.489-.4.572-1.144h.635V4.351H7.559A6.3,6.3,0,0,0,6.478,1.579,2.779,2.779,0,0,0,4.091.485,2.188,2.188,0,0,0,2.587,1,1.815,1.815,0,0,0,2,2.437a1.978,1.978,0,0,0,.6,1.473A8.62,8.62,0,0,0,4.06,5.035q.851.534,1.212.771A20.819,20.819,0,0,1,7.155,7.154,4.98,4.98,0,0,1,8.311,8.509a3.431,3.431,0,0,1,.441,1.747,3.17,3.17,0,0,1-.59,1.933,3.689,3.689,0,0,1-1.585,1.218,5.575,5.575,0,0,1-2.175.417,5.29,5.29,0,0,1-2.014-.361,6.03,6.03,0,0,1-1.044-.684.323.323,0,0,0-.236-.1q-.373,0-.522.957H0V8.552Z" transform="translate(0 0)" fill="#b97011"/>
  <path id="Trazado_38" data-name="Trazado 38" d="M102,3.916v-.7a2.812,2.812,0,0,0-.441-1.761A1.9,1.9,0,0,0,100,.906V0h4.349V3.153A4.964,4.964,0,0,1,106.14.772,4.41,4.41,0,0,1,108.647,0a3.608,3.608,0,0,1,2.724.983,3.645,3.645,0,0,1,.806,2.106,4.723,4.723,0,0,1,1.8-2.368A4.721,4.721,0,0,1,116.54,0a3.608,3.608,0,0,1,2.724.983,2.963,2.963,0,0,1,.665,1.334,9.382,9.382,0,0,1,.192,2.1v.995l-.055-.07c-.041-.051-.084-.1-.129-.15a3.6,3.6,0,0,0-.339-.314,3.978,3.978,0,0,0-1.122-.641,4.676,4.676,0,0,0-.709-.2V3.842a9.15,9.15,0,0,0-.115-1.615,1.736,1.736,0,0,0-.55-1.008,1.947,1.947,0,0,0-1.33-.389,2.868,2.868,0,0,0-1.8.625,4.171,4.171,0,0,0-1.266,1.71,4.991,4.991,0,0,0-.461,2.169v.093c-.034-.045-.069-.089-.105-.132s-.061-.071-.093-.106c-.08-.084-.165-.164-.252-.24A3.863,3.863,0,0,0,111,4.419a4.358,4.358,0,0,0-.855-.322q-.134-.036-.27-.063V3.842a9.131,9.131,0,0,0-.115-1.615,1.736,1.736,0,0,0-.55-1.008A1.925,1.925,0,0,0,107.892.83a2.868,2.868,0,0,0-1.816.632,4.217,4.217,0,0,0-1.266,1.723,6.916,6.916,0,0,0-.268.732Z" transform="translate(-76.962 0)" fill="#b97011"/>
  <path id="Trazado_39" data-name="Trazado 39" d="M256.089,13.823H250s0-.871,0-.875h0a3.332,3.332,0,0,0,1.17-.166,1.124,1.124,0,0,0,.627-.574,2.65,2.65,0,0,0,.2-1.136V3.216a2.813,2.813,0,0,0-.441-1.761A1.9,1.9,0,0,0,250,.906V0h4.349V3.153A4.964,4.964,0,0,1,256.14.772,4.41,4.41,0,0,1,258.647,0a3.608,3.608,0,0,1,2.724.983,3.645,3.645,0,0,1,.806,2.106,4.723,4.723,0,0,1,1.8-2.368A4.721,4.721,0,0,1,266.54,0a3.608,3.608,0,0,1,2.724.983,2.964,2.964,0,0,1,.665,1.334,9.382,9.382,0,0,1,.192,2.1v6.656a2.65,2.65,0,0,0,.2,1.136,1.123,1.123,0,0,0,.627.574,3.332,3.332,0,0,0,1.17.166v.874h-6.076v-.874a2.514,2.514,0,0,0,1.017-.166,1.049,1.049,0,0,0,.537-.574,3,3,0,0,0,.173-1.136V3.842a9.15,9.15,0,0,0-.115-1.615,1.736,1.736,0,0,0-.55-1.008,1.947,1.947,0,0,0-1.33-.389,2.868,2.868,0,0,0-1.8.625,4.171,4.171,0,0,0-1.266,1.71,6.078,6.078,0,0,0-.461,2.4v5.507a2.649,2.649,0,0,0,.2,1.136,1.124,1.124,0,0,0,.62.574,3.278,3.278,0,0,0,1.164.166v.874h-6.076v-.874a2.563,2.563,0,0,0,1.023-.166,1.02,1.02,0,0,0,.537-.574,3.106,3.106,0,0,0,.166-1.136V3.842a9.13,9.13,0,0,0-.115-1.615,1.736,1.736,0,0,0-.55-1.008A1.925,1.925,0,0,0,257.892.83a2.868,2.868,0,0,0-1.816.632,4.217,4.217,0,0,0-1.266,1.723,6.126,6.126,0,0,0-.46,2.406v5.482a3,3,0,0,0,.173,1.136,1.045,1.045,0,0,0,.543.574,2.563,2.563,0,0,0,1.023.166v.874Z" transform="translate(-192.405 0)" fill="#b97011"/>
  <path id="Trazado_40" data-name="Trazado 40" d="M201.823,12.949c0,.208,0,.874,0,.874H197.6V10.748a4.836,4.836,0,0,1-1.734,2.325,4.279,4.279,0,0,1-2.443.75,3.491,3.491,0,0,1-2.648-.975,2.871,2.871,0,0,1-.652-1.3,8.983,8.983,0,0,1-.193-2.05V3.074A2.8,2.8,0,0,0,189.5,1.35,1.814,1.814,0,0,0,188,.812V0h4.226V10.061a8.908,8.908,0,0,0,.112,1.575,1.7,1.7,0,0,0,.534.981,1.862,1.862,0,0,0,1.28.381,2.793,2.793,0,0,0,1.765-.613,4.083,4.083,0,0,0,1.23-1.675,5.993,5.993,0,0,0,.448-2.35V3.074a2.77,2.77,0,0,0-.429-1.725,1.833,1.833,0,0,0-1.51-.537V0h4.227V10.7a2.742,2.742,0,0,0,.429,1.718,1.846,1.846,0,0,0,1.51.531Z" transform="translate(-144.688 0)" fill="#b97011"/>
  <path id="Trazado_41" data-name="Trazado 41" d="M106.089,28.446H100s0-.871,0-.875h0a3.332,3.332,0,0,0,1.17-.166,1.123,1.123,0,0,0,.627-.574A2.65,2.65,0,0,0,102,25.7V22.216a2.812,2.812,0,0,0-.441-1.761A1.9,1.9,0,0,0,100,19.906V19h4.349v3.153a4.964,4.964,0,0,1,1.791-2.38A4.41,4.41,0,0,1,108.647,19a3.608,3.608,0,0,1,2.724.983,3.645,3.645,0,0,1,.806,2.106A4.445,4.445,0,0,1,116.54,19a3.608,3.608,0,0,1,2.724.983,2.963,2.963,0,0,1,.665,1.334,9.382,9.382,0,0,1,.192,2.1V25.7a2.65,2.65,0,0,0,.2,1.136,1.124,1.124,0,0,0,.627.574,3.332,3.332,0,0,0,1.17.166v.874h-6.076v-.874a2.514,2.514,0,0,0,1.017-.166,1.049,1.049,0,0,0,.537-.574,3,3,0,0,0,.173-1.136V22.842a9.15,9.15,0,0,0-.115-1.615,1.736,1.736,0,0,0-.55-1.008,1.947,1.947,0,0,0-1.33-.389,2.868,2.868,0,0,0-1.8.625,4.171,4.171,0,0,0-1.266,1.71,7.28,7.28,0,0,0-.461,2.63v.9a2.65,2.65,0,0,0,.2,1.136,1.124,1.124,0,0,0,.62.574,3.279,3.279,0,0,0,1.164.166v.874h-6.076v-.874a2.563,2.563,0,0,0,1.023-.166,1.02,1.02,0,0,0,.537-.574,3.1,3.1,0,0,0,.166-1.136V22.842a9.131,9.131,0,0,0-.115-1.615,1.736,1.736,0,0,0-.55-1.008,1.925,1.925,0,0,0-1.318-.389,2.868,2.868,0,0,0-1.816.632,4.217,4.217,0,0,0-1.266,1.723,7.332,7.332,0,0,0-.461,2.636V25.7a3,3,0,0,0,.173,1.136,1.045,1.045,0,0,0,.543.574,2.564,2.564,0,0,0,1.023.166v.874Z" transform="translate(-76.962 -14.623)" fill="#b97011"/>
  <path id="Trazado_42" data-name="Trazado 42" d="M51.823,12.949c0,.208,0,.874,0,.874H47.6V10.748a4.836,4.836,0,0,1-1.734,2.325,4.279,4.279,0,0,1-2.443.75,3.491,3.491,0,0,1-2.648-.975,2.871,2.871,0,0,1-.652-1.3,8.984,8.984,0,0,1-.193-2.05V3.074A2.8,2.8,0,0,0,39.5,1.35,1.814,1.814,0,0,0,38,.812V0h4.226V10.061a8.907,8.907,0,0,0,.112,1.575,1.7,1.7,0,0,0,.534.981,1.862,1.862,0,0,0,1.28.381,2.793,2.793,0,0,0,1.765-.613,4.083,4.083,0,0,0,1.23-1.675,5.994,5.994,0,0,0,.448-2.35V3.074a2.77,2.77,0,0,0-.429-1.725,1.833,1.833,0,0,0-1.51-.537V0h4.227V10.7a2.742,2.742,0,0,0,.429,1.718,1.846,1.846,0,0,0,1.51.531Z" transform="translate(-29.246 0)" fill="#b97011"/>
</svg>
