<svg xmlns="http://www.w3.org/2000/svg" viewBox="0 0 180 60" role="img"><path d="M17.342,40.289l23.787,0l-11.662,-29.637l-12.125,29.637ZM48.91,60l-5.914,-14.941l-27.6,0l-6.067,14.941l-9.329,0l0,-1.594c3.581,-0.63 5.284,-2.38 6.455,-5.242l19.984,-48.875c-1.249,-1.505 -2.333,-2.144 -3.89,-2.695l0,-1.594l12.909,0l21.146,53.085c1.016,2.626 2.563,4.927 6.3,5.321l0,1.594l-13.994,0Z"/><path d="M104.061,31.634c-3.396,1.267 -6.949,1.818 -9.803,1.818c-4.635,0 -8.874,-1.426 -11.197,-2.931l0,25.033c3.552,0.63 7.182,0.787 10.035,0.787c8.343,0 16.288,-2.616 16.288,-13.505c0,-6.04 -3.165,-9.856 -5.323,-11.202ZM91.867,3.66c-3.706,0 -6.638,0.314 -8.806,0.629l0,22.17c2.71,1.908 7.182,3.345 11.197,3.345c5.246,0 11.807,-1.751 11.807,-12.158c0,-9.383 -5.555,-13.986 -14.198,-13.986ZM73.8,8.263c0,-3.974 -1.694,-5.558 -5.09,-6.669l0,-1.594l26.245,0c11.033,0 20.758,5.725 20.758,16.368c0,5.488 -2.468,9.383 -5.942,12.078c4.858,1.829 9.261,6.049 9.261,13.515c0,13.908 -11.575,18.039 -23.844,18.039l-26.478,0l0,-1.594c3.396,-1.111 5.09,-2.695 5.09,-6.667l0,-43.476Z"/><path d="M172.588,3.717c1.557,0 2.418,-1.701 3.125,-3.717l1.558,0l2.729,17.105l-1.558,0c-4.993,-5.882 -12.252,-12.767 -22.548,-12.767c-11.943,0 -21.068,8.822 -21.068,22.838c0,15.178 9.755,26.627 24.658,26.627c6.551,0 13.259,-2.085 19.422,-5.96l0.861,1.858c-3.667,3.718 -11.544,10.299 -25.828,10.299c-15.833,0 -29.1,-10.997 -29.1,-30.275c0,-15.709 12.716,-29.725 30.348,-29.725c10.694,0 15.213,3.717 17.401,3.717Z"/></svg>