<svg id="Grupo_2" data-name="Grupo 2" xmlns="http://www.w3.org/2000/svg" width="117.943" height="13.714" viewBox="0 0 117.943 13.714">
  <g id="bienestar-solo-2" transform="translate(20.5)">
    <g id="Grupo_4" data-name="Grupo 4" transform="translate(0 0)">
      <path id="Trazado_13" data-name="Trazado 13" d="M82.331,326.118a3.065,3.065,0,0,1-1.268,2.589,4.409,4.409,0,0,1-1.39.665,6.024,6.024,0,0,1-1.685.229H71.443V316.086h7.233a2.666,2.666,0,0,1,1.268.317,3.173,3.173,0,0,1,.977.777,3.621,3.621,0,0,1,.634,1.1,3.7,3.7,0,0,1-.276,3.1,3.014,3.014,0,0,1-1.447,1.285A3.489,3.489,0,0,1,81.67,323.9a3.547,3.547,0,0,1,.661,2.218Zm-8.249-7.786v3.407h3.49a1.558,1.558,0,0,0,1.133-.457,1.68,1.68,0,0,0,.467-1.268,1.735,1.735,0,0,0-.428-1.215,1.39,1.39,0,0,0-1.057-.457Zm5.616,7.3a1.98,1.98,0,0,0-.124-.695,1.928,1.928,0,0,0-.317-.581,1.552,1.552,0,0,0-.5-.39,1.384,1.384,0,0,0-.634-.143H74.072v3.544h3.9a1.715,1.715,0,0,0,.676-.133,1.622,1.622,0,0,0,.543-.371,1.809,1.809,0,0,0,.5-1.247Z" transform="translate(-71.443 -316)" fill="#60823e"/>
      <path id="Trazado_14" data-name="Trazado 14" d="M231.955,329.6V316.086h2.627V329.6Z" transform="translate(-219.011 -316)" fill="#60823e"/>
      <path id="Trazado_15" data-name="Trazado 15" d="M308.842,327.3v2.3h-9.378V316.086h9.2v2.3h-6.574v3.264h5.692v2.132h-5.692v3.522Z" transform="translate(-281.076 -316)" fill="#60823e"/>
      <path id="Trazado_16" data-name="Trazado 16" d="M443.955,320.939V329.6h-2.627V316.086h2.037l7.043,8.883V316.1h1.358v13.5H450.9Z" transform="translate(-411.499 -316)" fill="#60823e"/>
      <path id="Trazado_17" data-name="Trazado 17" d="M595.572,328.421v1.18H586.5V316.086h8.909v1.18h-7.578v4.873h6.605v1.123h-6.605v5.159h7.741Z" transform="translate(-544.963 -316)" fill="#60823e"/>
      <path id="Trazado_18" data-name="Trazado 18" d="M722.133,317.652a4.121,4.121,0,0,0-1.521-1.046,5.561,5.561,0,0,0-2.17-.4,4.077,4.077,0,0,0-2.608.676,2.256,2.256,0,0,0-.819,1.838,2.03,2.03,0,0,0,.219,1,1.9,1.9,0,0,0,.676.676,4.738,4.738,0,0,0,1.168.5q.714.209,1.685.419a18.316,18.316,0,0,1,1.951.514,5.6,5.6,0,0,1,1.475.714,2.961,2.961,0,0,1,.933,1.037,3.219,3.219,0,0,1,.317,1.521,3.418,3.418,0,0,1-.362,1.616,3.221,3.221,0,0,1-1.009,1.141,4.5,4.5,0,0,1-1.542.676,8.252,8.252,0,0,1-1.961.219,8.058,8.058,0,0,1-5.425-1.961l.666-1.085a5.288,5.288,0,0,0,.866.723,6.294,6.294,0,0,0,1.136.606,7.142,7.142,0,0,0,1.323.4,7.469,7.469,0,0,0,1.485.143,4.656,4.656,0,0,0,2.522-.581,1.951,1.951,0,0,0,.9-1.761,2.022,2.022,0,0,0-.257-1.057,2.22,2.22,0,0,0-.771-.742,5.476,5.476,0,0,0-1.268-.543q-.761-.229-1.77-.457-1.066-.248-1.865-.514a4.975,4.975,0,0,1-1.351-.665,2.6,2.6,0,0,1-.828-.951,3.111,3.111,0,0,1-.276-1.38,3.8,3.8,0,0,1,.352-1.666,3.273,3.273,0,0,1,1-1.218,4.732,4.732,0,0,1,1.513-.745,6.888,6.888,0,0,1,1.942-.257,6.633,6.633,0,0,1,2.424.4,6.465,6.465,0,0,1,1.9,1.152Z" transform="translate(-661.391 -315.034)" fill="#60823e"/>
      <path id="Trazado_19" data-name="Trazado 19" d="M862.775,317.266h-4.817V329.6h-1.339V317.266h-4.808v-1.18h10.966v1.18Z" transform="translate(-788.879 -316)" fill="#60823e"/>
      <path id="Trazado_20" data-name="Trazado 20" d="M983.751,316.086h1.123L990.49,329.6h-1.409l-1.764-4.226h-6.059l-1.732,4.226H978.1Zm3.274,8.249-2.722-6.687-2.76,6.683Z" transform="translate(-904.983 -316)" fill="#60823e"/>
      <path id="Trazado_21" data-name="Trazado 21" d="M1155.84,329.6V316.084h5.711a3.509,3.509,0,0,1,1.608.371,4.239,4.239,0,0,1,1.268.971,4.444,4.444,0,0,1,.824,1.371,4.243,4.243,0,0,1,.3,1.542,4.577,4.577,0,0,1-.228,1.409,4.384,4.384,0,0,1-.609,1.218,3.687,3.687,0,0,1-.951.914,3.326,3.326,0,0,1-1.236.5l3.312,5.216h-1.5l-3.173-4.987h-4V329.6Zm1.331-6.168h4.416a2.262,2.262,0,0,0,1.076-.257,2.572,2.572,0,0,0,.828-.695,3.386,3.386,0,0,0,.533-.99,3.544,3.544,0,0,0,.19-1.161,3.2,3.2,0,0,0-.219-1.171,3.232,3.232,0,0,0-.58-.98,2.818,2.818,0,0,0-.885-.65,2.371,2.371,0,0,0-1.057-.247h-4.3Z" transform="translate(-1068.391 -315.998)" fill="#60823e"/>
    </g>
  </g>
  <g id="Grupo_1" data-name="Grupo 1" transform="translate(0 0.085)">
    <path id="Trazado_28" data-name="Trazado 28" d="M222.867,227.31l-.024-.4-.4.005a9.7,9.7,0,0,0-5.028,1.616,9.4,9.4,0,0,0-1.426-3.486,11.443,11.443,0,0,0-1.521-1.9l-.291-.278-.291.278a11.433,11.433,0,0,0-1.521,1.9,9.447,9.447,0,0,0-1.416,3.43,9.758,9.758,0,0,0-4.952-1.56l-.4-.005-.024.4c-.009.152-.2,3.754,1.965,6.075a10.1,10.1,0,0,0,3.079,2.315h-2.52v.684h12.193V235.7h-2.46a10.1,10.1,0,0,0,3.079-2.315C223.064,231.064,222.876,227.462,222.867,227.31Zm-8.693-3.248a9.147,9.147,0,0,1,2.5,5.611,10.232,10.232,0,0,1-.815,4.222c-.471,1-1.084,1.58-1.682,1.58s-1.211-.576-1.68-1.58a10.22,10.22,0,0,1-.815-4.222,9.147,9.147,0,0,1,2.5-5.611Zm-6.026,8.749a7.974,7.974,0,0,1-1.743-5.026c.074.007.157.016.247.027a8.28,8.28,0,0,1,4.186,1.648c0,.071,0,.142,0,.213a11.073,11.073,0,0,0,.895,4.58,5.283,5.283,0,0,0,.638,1.051,3.336,3.336,0,0,1-1.179-.271,8.958,8.958,0,0,1-3.038-2.221Zm12.138,0a8.942,8.942,0,0,1-3.04,2.221,3.192,3.192,0,0,1-1.264.27,5.294,5.294,0,0,0,.637-1.049,11.075,11.075,0,0,0,.894-4.58c0-.048,0-.1,0-.143a8.186,8.186,0,0,1,4.271-1.719q.136-.016.247-.027a7.957,7.957,0,0,1-1.741,5.026Z" transform="translate(-205.56 -222.868)" fill="#60823e"/>
  </g>
</svg>
