<?xml version="1.0" encoding="utf-8"?>
<!-- Generator: Adobe Illustrator 26.0.2, SVG Export Plug-In . SVG Version: 6.00 Build 0)  -->
<svg version="1.1" id="Capa_1" xmlns="http://www.w3.org/2000/svg" xmlns:xlink="http://www.w3.org/1999/xlink" x="0px" y="0px"
	 viewBox="0 0 224.7 21" style="enable-background:new 0 0 224.7 21;" xml:space="preserve">
<style type="text/css">
	.st0{enable-background:new    ;}
	.st1{fill:#244765;}
	.st2{fill:#D42561;}
</style>
<g>
	<g class="st0">
		<path class="st1" d="M12,0l8.1,19.4l1.9,0.6v0.6h-9.2v-0.5l2.1-0.6L13,14.4H6l-2.1,5.1L6,20.1v0.6H0v-0.5l2.1-0.6l8.1-19.3L12,0z
			 M9.6,5.8L9.6,5.8l-3,7.4h6L9.6,5.8z"/>
		<path class="st1" d="M22.8,20.7v-0.5l2.2-0.6v-18l-2.2-0.6V0.3h9.2c4.7,0,8.2,1.3,8.2,4.9c0,2.8-2.1,4.1-5.4,4.6V10
			c3.8,0.5,6.3,1.9,6.3,5.2c0,3.9-3.6,5.5-8.2,5.5H22.8z M29.5,1.6v7.7h1.9c2.7,0,4.1-1.4,4.1-3.8c0-2.7-1.4-3.9-3.9-3.9
			C31.6,1.6,29.5,1.6,29.5,1.6z M29.5,10.6v8.8h2.8c2.7,0,4.1-1.6,4.1-4.4c0-2.7-1.4-4.4-3.9-4.4H29.5z"/>
		<path class="st1" d="M52.9,21c-5.7,0-9.8-3.6-9.8-10.3c0-7,4.6-10.7,10.6-10.7c2.5,0,4.1,0.6,5.7,0.6v1.4c0,2.1,0.5,3.8,0.5,3.8
			l-0.8,0.3c0,0-2.2-1.4-3-4.3c-0.6-0.3-1.4-0.5-2.4-0.5c-3.3,0-5.5,3-5.5,9c0,5.4,2.5,8.1,5.7,8.1c3.3,0,5.1-1.7,6.2-3.3l0.5,0.3
			C59.9,17.7,57.7,21,52.9,21z"/>
	</g>
	<g class="st0">
		<path class="st2" d="M77.9,21c-5.7,0-9.8-3.6-9.8-10.3c0-7,4.6-10.7,10.6-10.7c2.5,0,4.1,0.6,5.7,0.6v1.4c0,2.1,0.5,3.8,0.5,3.8
			l-0.8,0.3c0,0-2.2-1.4-3-4.3c-0.6-0.3-1.4-0.5-2.4-0.5c-3.3,0-5.5,3-5.5,9c0,5.4,2.5,8.1,5.7,8.1c3.3,0,5.1-1.7,6.2-3.3l0.5,0.3
			C84.8,17.7,82.6,21,77.9,21z"/>
		<path class="st2" d="M103.5,1.6l-2.2-0.6V0.3h6.3v0.5l-2.2,0.6v15c-1.4,2.7-3.6,4.4-8.1,4.4c-3.9,0-7.4-1.6-8.7-4.3v-15l-2.2-0.6
			V0.3h9v0.5l-2.2,0.6v13.3c0,3,1.7,4.6,4.6,4.6c3.2,0,5.5-1.9,5.5-4.7v-13H103.5z"/>
		<path class="st2" d="M109.3,0.8V0.3h9v0.5l-2.2,0.6v17.9h6.6c0.6-2.7,2.5-4.6,2.5-4.6l0.6,0.2c0,0-0.3,2.7-0.3,4.7v1.1h-16.3v-0.5
			l2.2-0.6v-18L109.3,0.8z"/>
		<path class="st2" d="M123.9,6l-0.6-0.2c0,0,0.3-2.1,0.3-4.4V0.3h18v1.1c0,2.4,0.3,4.4,0.3,4.4L141.3,6c0,0-1.6-1.6-2.5-4.3h-3.9
			v17.9l2.2,0.6v0.5h-9.2v-0.5l2.2-0.6v-18h-3.9C125.5,4.3,123.9,6,123.9,6z"/>
		<path class="st2" d="M159.9,1.6l-2.2-0.6V0.3h6.3v0.5l-2.2,0.6v15c-1.4,2.7-3.6,4.4-8.1,4.4c-3.9,0-7.4-1.6-8.7-4.3v-15l-2.2-0.6
			V0.3h9.2v0.5l-2.2,0.6v13.3c0,3,1.7,4.6,4.6,4.6c3.2,0,5.5-1.9,5.5-4.7V1.6z"/>
		<path class="st2" d="M185.8,20.7h-5.5c-0.9-0.3-1.9-1.3-2.7-3l-2.5-5.8h-2.5v7.6l2.1,0.6v0.6h-8.8v-0.5l2.2-0.6v-18l-2.2-0.6V0.3
			h9.8c4.6,0,7.9,1.6,7.9,5.5c0,2.5-1.6,4.3-3.8,5.1v0.2l2.1,4.4c1.9,4.1,4.1,4.6,4.1,4.6V20.7z M172.5,10.6h3.9
			c0.9-0.6,2.2-1.9,2.2-4.6c0-3-1.6-4.3-4.1-4.3h-2.1V10.6z"/>
		<path class="st2" d="M197.2,0l8.1,19.4l1.9,0.6v0.6H198v-0.5l2.1-0.6l-2.1-5.1h-7l-2.1,5.1l2.1,0.6v0.5h-6v-0.5l2.1-0.6l8.1-19.3
			L197.2,0z M194.8,5.8L194.8,5.8l-3,7.4h6L194.8,5.8z"/>
		<path class="st2" d="M208.1,0.8V0.3h9v0.5l-2.2,0.6v17.9h6.6c0.6-2.7,2.5-4.6,2.5-4.6l0.6,0.2c0,0-0.3,2.7-0.3,4.7v1.1h-16.3v-0.5
			l2.2-0.6v-18L208.1,0.8z"/>
	</g>
</g>
</svg>
