<svg id="logo-ABC" xmlns="http://www.w3.org/2000/svg" viewBox="0 0 43.375 14.317">
  <path id="Trazado_4" data-name="Trazado 4" d="M11.986,15.136l-1.448-3.47H3.773l-1.486,3.47H0v-.369a1.865,1.865,0,0,0,1.582-1.218L6.479,2.2a1.952,1.952,0,0,0-.953-.628V1.2H8.689l5.183,12.33a1.736,1.736,0,0,0,1.544,1.237v.369ZM4.249,10.558H10.08L7.222,3.673Z" transform="translate(0 -1.009)"/>
  <path id="Trazado_5" data-name="Trazado 5" d="M107.938,3.12c0-.923-.419-1.292-1.258-1.55V1.2h6.479c2.725,0,5.126,1.329,5.126,3.8a3.348,3.348,0,0,1-1.467,2.806,3.2,3.2,0,0,1,2.287,3.138c0,3.23-2.858,4.19-5.888,4.19H106.68v-.369c.838-.258,1.258-.628,1.258-1.55ZM112.4,2.049a15.635,15.635,0,0,0-2.172.148v5.15a5.424,5.424,0,0,0,2.763.775c1.3,0,2.915-.406,2.915-2.824C115.9,3.12,114.531,2.049,112.4,2.049Zm3.011,6.5a7.54,7.54,0,0,1-2.42.425,5.659,5.659,0,0,1-2.763-.683V14.1a15.271,15.271,0,0,0,2.477.185c2.058,0,4.021-.609,4.021-3.138A3.02,3.02,0,0,0,115.407,8.546Z" transform="translate(-90.456 -1.009)"/>
  <path id="Trazado_6" data-name="Trazado 6" d="M208.582.887c.381,0,.591-.406.762-.887h.381l.667,4.083h-.381c-1.22-1.4-2.992-3.048-5.507-3.048-2.915,0-5.145,2.106-5.145,5.45,0,3.621,2.382,6.355,6.022,6.355a9.132,9.132,0,0,0,4.745-1.422l.21.443a8.547,8.547,0,0,1-6.307,2.457,6.836,6.836,0,0,1-7.108-7.223A7.23,7.23,0,0,1,204.333,0C206.943,0,208.048.887,208.582.887Z" transform="translate(-167.017)"/>
</svg>
