<svg xmlns="http://www.w3.org/2000/svg" viewBox="0 0 76.779 13.389">
  <path id="Trazado_1737" data-name="Trazado 1737" d="M82.472,139.463h7.6v-2H85.023V127.35H82.472Zm-8.116-12.109H71.413l3.624,5.784-3.947,6.325h2.841l1.835-3.2a12.183,12.183,0,0,0,.856-1.712h.122a9.683,9.683,0,0,0,.766,1.6l1.923,3.317h3.011L78.5,133.139l3.623-5.784H79.29l-1.667,2.939a7.184,7.184,0,0,0-.766,1.513h-.068a10.683,10.683,0,0,0-.856-1.712Z" transform="translate(-71.09 -126.359)" fill="#d2121d"/>
  <path id="Trazado_1738" data-name="Trazado 1738" d="M261.391,132.354h2.429v-13.1h-2.429Zm-2.84-2.833c-1.1.944-1.383,1.18-2.311,1.18a1.232,1.232,0,0,1-1.248-1.4c0-1.2.809-1.821,2.833-1.821h.725Zm.084,2.833h2.324c-.033-.422-.083-1.332-.083-1.72V125.71c0-2.665-1.654-3.644-3.863-3.644a3.78,3.78,0,0,0-4,2.569l2.126.591c.353-.911.641-1.535,1.787-1.535a1.449,1.449,0,0,1,1.619,1.568v.775h-1.064c-2.731,0-4.823.894-4.823,3.475,0,1.82,1.031,3.043,2.786,3.043a4.064,4.064,0,0,0,3.1-1.72Zm-8.7,0h2.429v-7.319c0-1.484-.489-2.969-2.462-2.969a4.98,4.98,0,0,0-3.373,1.7v-1.5H244.1v10.085h2.428v-6.965c.877-.827,1.366-1.266,2.142-1.266s1.265.489,1.265,1.434Zm-8.651-2.833c-1.1.944-1.383,1.18-2.311,1.18a1.232,1.232,0,0,1-1.248-1.4c0-1.2.81-1.821,2.833-1.821h.725Zm.084,2.833h2.324c-.034-.422-.084-1.332-.084-1.72V125.71c0-2.665-1.652-3.644-3.863-3.644a3.777,3.777,0,0,0-4,2.569l2.125.591c.354-.911.641-1.535,1.787-1.535a1.449,1.449,0,0,1,1.619,1.568v.775h-1.063c-2.731,0-4.823.894-4.823,3.475,0,1.821,1.029,3.052,2.783,3.052a4.06,4.06,0,0,0,3.1-1.72Zm-19.834,0h2.429v-6.982c.979-1.046,1.332-1.249,1.957-1.249.742,0,1.18.557,1.18,1.5v6.727h2.429v-6.981c.979-1.046,1.332-1.249,1.957-1.249.742,0,1.18.557,1.18,1.5v6.727h2.429v-7.3c0-1.721-.708-2.986-2.53-2.986a4.456,4.456,0,0,0-3.2,1.687,2.332,2.332,0,0,0-2.345-1.687c-1.345,0-2.125.777-3.052,1.687v-1.482h-2.432Zm-6.85-6.055c.084-1.3.641-2.547,2.126-2.512,1.2-.034,1.923.893,1.923,2.512Zm4.049,3.036a2.027,2.027,0,0,1-1.906,1.5c-1.738,0-2.143-1.72-2.143-2.917h6.483v-.911c0-2.664-1.416-4.942-4.266-4.942-2.969,0-4.638,2.126-4.638,5.212,0,3.288,1.788,5.278,4.621,5.278a3.856,3.856,0,0,0,3.914-2.547Zm-6.812-6.813c-.657-1.974-2.108-2.462-4.1-2.462-3.238,0-4.368,1.906-4.368,3.575,0,1.906,1.568,2.766,3.136,3.355l1.6.625c1.1.421,1.451.893,1.451,1.518,0,.96-.775,1.59-1.99,1.59a1.968,1.968,0,0,1-2.176-1.754l-2.276.856c.27,1.23,1.551,2.813,4.334,2.813,3.058,0,4.638-1.737,4.638-3.76,0-1.59-.827-2.5-2.53-3.2l-2.631-1.1c-.81-.338-1.029-.624-1.029-1.232,0-.674.522-1.434,1.889-1.434a1.661,1.661,0,0,1,1.754,1.366Z" transform="translate(-187.041 -119.25)"/>
</svg>
