<svg id="a47a4657-8904-4f4f-bbdd-059f5bb53737" data-name="Layer 1" xmlns="http://www.w3.org/2000/svg" viewBox="0 0 766.26 135.69"><defs><style>.aa18c4f5-6363-4aad-878b-e4fe2fda1e56{fill:#1d1d1b;}</style></defs><path class="aa18c4f5-6363-4aad-878b-e4fe2fda1e56" d="M58.51,60.63l34,58.83h-68l34-58.83m0-28.34L0,133.63H117L58.51,32.29Z" transform="translate(0.01)"/><polygon class="aa18c4f5-6363-4aad-878b-e4fe2fda1e56" points="620.98 0 602.01 19.38 610.67 28.05 629.92 8.94 620.98 0"/><polygon class="aa18c4f5-6363-4aad-878b-e4fe2fda1e56" points="640.23 133.63 640.23 119.88 615.9 119.88 615.9 47.02 640.23 47.02 640.23 33.27 576.99 33.27 576.99 47.02 601.32 47.02 601.32 119.88 576.99 119.88 576.99 133.63 640.23 133.63"/><path class="aa18c4f5-6363-4aad-878b-e4fe2fda1e56" d="M565.3,40.7q-8.94-7.43-22-7.43H503.43V133.63h14.44v-44H543.3q13.07,0,22-7.43t8.93-20.75Q574.23,48.13,565.3,40.7Zm-9.9,30.86Q551,75.2,544,75.2H517.87V47H544a16.58,16.58,0,0,1,11.34,3.92,13.29,13.29,0,0,1,4.47,10.52Q559.8,67.91,555.4,71.56Z" transform="translate(0.01)"/><path class="aa18c4f5-6363-4aad-878b-e4fe2fda1e56" d="M475,45.92q-15.33-14.7-37.59-14.71t-37.6,14.71q-15.33,14.71-15.33,37.53T399.85,121q15.31,14.71,37.6,14.71T475,121q15.33-14.7,15.33-37.53T475,45.92Zm-9.89,65.16q-10.66,10.59-27.7,10.59t-27.77-10.59Q399,100.51,399,83.59t10.73-27.7q10.71-10.65,27.77-10.66t27.7,10.66q10.65,10.65,10.65,27.7t-10.69,27.49Z" transform="translate(0.01)"/><path class="aa18c4f5-6363-4aad-878b-e4fe2fda1e56" d="M338.6,89h5.09a34.83,34.83,0,0,0,22.48-7.56,24.34,24.34,0,0,0,9.41-19.93q0-12.93-9-20.56t-21.93-7.63H306.16V133.63h14.43V89l38.77,44.68h18.28ZM320.6,47h24.75a16.58,16.58,0,0,1,11.34,3.92,13.29,13.29,0,0,1,4.47,10.52q0,6.45-4.4,10.1T345.35,75.2H320.59Z" transform="translate(0.01)"/><polygon class="aa18c4f5-6363-4aad-878b-e4fe2fda1e56" points="296.55 47.7 296.55 33.27 212.69 33.27 212.69 47.7 247.33 47.7 247.33 133.63 261.9 133.63 261.9 47.7 296.55 47.7"/><polygon class="aa18c4f5-6363-4aad-878b-e4fe2fda1e56" points="141.75 33.27 126.08 33.27 126.08 133.63 140.24 133.63 140.24 58.56 187.39 133.63 203.06 133.63 203.06 33.27 189.04 33.27 189.04 108.61 141.75 33.27"/><path class="aa18c4f5-6363-4aad-878b-e4fe2fda1e56" d="M707.76,60.63l34,58.83h-68l34-58.83m0-28.34L649.25,133.63h117L707.76,32.29Z" transform="translate(0.01)"/></svg>