<svg xmlns="http://www.w3.org/2000/svg" width="101" height="70" viewBox="0 0 101 70">
  <g id="Grupo_2126" data-name="Grupo 2126" transform="translate(-108 -824)">
    <path id="Trazado_1825" data-name="Trazado 1825" d="M0,0H101V58A12,12,0,0,1,89,70H12A12,12,0,0,1,0,58Z" transform="translate(108 824)" fill="#e4b016"/>
    <path id="Trazado_1826" data-name="Trazado 1826" d="M.544,14.344a9.815,9.815,0,0,0,4.064.816c2.736,0,4.32-1.744,4.32-3.5,0-1.808-.912-2.848-2.96-3.52L4.176,7.544A1.262,1.262,0,0,1,3.28,6.3a1.406,1.406,0,0,1,1.568-1.5,3.848,3.848,0,0,1,1.712.352,5.01,5.01,0,0,0,1.68,2.1l.416-.208a8.586,8.586,0,0,1-.224-1.984V4.472a29.854,29.854,0,0,0-3.568-.48C2.784,3.992.8,4.9.8,7.192a3.129,3.129,0,0,0,2.448,3.056l1.888.624a1.518,1.518,0,0,1,1.072,1.472,1.734,1.734,0,0,1-1.856,1.968,4.144,4.144,0,0,1-1.84-.48A5.812,5.812,0,0,0,.832,11.3l-.528.24a11.093,11.093,0,0,1,.24,2.16ZM13.232,6.6H12.64l-3.1.688v.32l1.008.176v5.808a2.344,2.344,0,0,0,2.48,1.568,3.259,3.259,0,0,0,2.432-1.04h.08l.16.88h3.44v-.272l-.992-.352V6.6h-.592l-3.1.688v.32l1.008.176v5.728a2.028,2.028,0,0,1-1.136.352,1.122,1.122,0,0,1-1.088-.64Zm6.72,7.84a8.019,8.019,0,0,0,3.248.72c1.968,0,3.376-1.12,3.376-2.88,0-1.28-.784-1.984-2.24-2.528l-1.1-.416a1.026,1.026,0,0,1-.688-.992.991.991,0,0,1,1.088-1.056,2.7,2.7,0,0,1,1.056.224,2.843,2.843,0,0,0,1.424,1.456l.256-.144a3.805,3.805,0,0,1-.192-1.168V6.968c-.768,0-1.728-.368-2.848-.368-1.472,0-3.152.768-3.152,2.592a2.544,2.544,0,0,0,2,2.5l1.2.448a1.036,1.036,0,0,1,.784,1.04,1.139,1.139,0,0,1-1.248,1.28,2.9,2.9,0,0,1-1.424-.416A3.36,3.36,0,0,0,20.1,12.2l-.336.144a6.111,6.111,0,0,1,.192,1.6Zm13.7-4.976a4.171,4.171,0,0,0,.64-2.032A4.59,4.59,0,0,0,31.52,6.6,4.121,4.121,0,0,0,27.3,10.936c0,2.816,1.648,4.224,4.112,4.224a3.484,3.484,0,0,0,3.152-2l-.3-.224a3.342,3.342,0,0,1-2.176.976c-1.168,0-2.08-.8-2.08-3.376,0-2.192.576-3.168,1.616-3.168a1.789,1.789,0,0,1,.608.112,5.872,5.872,0,0,1,.512,1.984Zm8-.016a8.455,8.455,0,0,0,.5-2.768,3.837,3.837,0,0,0-.736-.08,3.4,3.4,0,0,0-2.592,1.248h-.064V6.6h-.528l-3.264.688V7.56c.336.064.8.112,1.168.176v6.64l-1.152.352V15H40.16v-.272c-.416-.1-.912-.24-1.344-.352V8.584a3.565,3.565,0,0,1,1.232-.7,4.06,4.06,0,0,1,.416,1.568ZM45.856,3l-1.84,2.48.208.224L47.3,4.36,46.128,3ZM46.4,6.6h-.592l-3.1.688v.32l1.008.176v6.592l-.992.352V15h4.672v-.272l-.992-.352Zm4.944-3.344h-.592l-3.1.528V4.1l1.008.176V15l.256.208,1.664-.624a3.847,3.847,0,0,0,2.128.576c2.528,0,4.24-1.744,4.24-4.48,0-3.344-1.808-4.08-3.152-4.08a3.716,3.716,0,0,0-2.448,1.024ZM52.48,7.9c.992,0,1.648.688,1.648,2.992,0,2.48-.336,3.536-1.36,3.536a1.854,1.854,0,0,1-1.424-.784V8.248A1.911,1.911,0,0,1,52.48,7.9Zm12.288,5.152a3.529,3.529,0,0,1-2.3.88c-1.1,0-1.968-.736-2.048-3.056l4.736.08v-.7A3.331,3.331,0,0,0,61.68,6.6a4.011,4.011,0,0,0-3.936,4.336c0,2.816,1.616,4.224,4.048,4.224a3.56,3.56,0,0,0,3.216-1.9ZM61.616,7.256c.736,0,1.008,1.04,1.008,2.688v.288l-2.208.128C60.416,9.208,60.5,7.256,61.616,7.256Zm4.016.128h1.136v6.752A4.408,4.408,0,0,0,69.6,15.16a3.522,3.522,0,0,0,2.448-.96l-.256-.336a2.412,2.412,0,0,1-1.3.48,1.5,1.5,0,0,1-1.056-.416V7.384h2.016V6.76H69.44V4.568h-.912l-1.68,2.208-1.216.208Zm13.6,5.664a3.529,3.529,0,0,1-2.3.88c-1.1,0-1.968-.736-2.048-3.056l4.736.08v-.7A3.331,3.331,0,0,0,76.144,6.6a4.011,4.011,0,0,0-3.936,4.336c0,2.816,1.616,4.224,4.048,4.224a3.56,3.56,0,0,0,3.216-1.9ZM76.08,7.256c.736,0,1.008,1.04,1.008,2.688v.288l-2.208.128C74.88,9.208,74.96,7.256,76.08,7.256ZM0,16H79.936v1H0Zm4.4,7.6A5.566,5.566,0,0,0,.72,24.928a3.256,3.256,0,0,0,.688,1.632h.928a5.5,5.5,0,0,1,.576-2.032,1.877,1.877,0,0,1,.832-.208c1.024,0,1.344.592,1.344,1.952v.784A9.686,9.686,0,0,0,.56,29.072v.912A2.093,2.093,0,0,0,2.944,32.16a3.1,3.1,0,0,0,2.272-1.008A1.807,1.807,0,0,0,7.008,32.16,2.11,2.11,0,0,0,9.3,30.208l-.432-.128c-.128.48-.432,1.136-.816,1.136-.208,0-.352-.112-.352-.48,0-1.92.048-2.784.048-4.08C7.744,24.576,6.608,23.6,4.4,23.6Zm-.384,7.424c-.464,0-.864-.384-.864-1.328V28.448a6.94,6.94,0,0,1,1.92-.816c0,.944-.016,1.856-.016,2.7a2.363,2.363,0,0,0,.016.336A1.9,1.9,0,0,1,4.016,31.024ZM12.64,20.256l-3.1.528v.32l1.008.176v10.1l-.992.352V32h4.432v-.272l-.752-.352V25.248a2.028,2.028,0,0,1,1.136-.352,1.019,1.019,0,0,1,1.152,1.152v5.328l-.768.352V32H19.2v-.272l-.992-.352V26.32c0-2.032-1.184-2.72-2.528-2.72a3.654,3.654,0,0,0-2.448,1.04V20.256ZM24.08,23.6a4.02,4.02,0,0,0-4.288,4.336,3.862,3.862,0,0,0,4.192,4.224,4.019,4.019,0,0,0,4.272-4.32A3.855,3.855,0,0,0,24.08,23.6Zm0,7.872c-1.04,0-1.472-1.136-1.472-3.568,0-2.464.336-3.6,1.376-3.6,1.024,0,1.456,1.136,1.456,3.6C25.44,30.336,25.1,31.472,24.08,31.472Zm11.664-5.024a8.455,8.455,0,0,0,.5-2.768,3.837,3.837,0,0,0-.736-.08,3.4,3.4,0,0,0-2.592,1.248h-.064V23.6H32.32l-3.264.688v.272c.336.064.8.112,1.168.176v6.64l-1.152.352V32h5.184v-.272c-.416-.1-.912-.24-1.344-.352V25.584a3.565,3.565,0,0,1,1.232-.7,4.06,4.06,0,0,1,.416,1.568ZM40.72,23.6a5.566,5.566,0,0,0-3.68,1.328,3.256,3.256,0,0,0,.688,1.632h.928a5.5,5.5,0,0,1,.576-2.032,1.877,1.877,0,0,1,.832-.208c1.024,0,1.344.592,1.344,1.952v.784a9.686,9.686,0,0,0-4.528,2.016v.912a2.093,2.093,0,0,0,2.384,2.176,3.1,3.1,0,0,0,2.272-1.008,1.807,1.807,0,0,0,1.792,1.008,2.11,2.11,0,0,0,2.288-1.952l-.432-.128c-.128.48-.432,1.136-.816,1.136-.208,0-.352-.112-.352-.48,0-1.92.048-2.784.048-4.08C44.064,24.576,42.928,23.6,40.72,23.6Zm-.384,7.424c-.464,0-.864-.384-.864-1.328V28.448a6.94,6.94,0,0,1,1.92-.816c0,.944-.016,1.856-.016,2.7a2.363,2.363,0,0,0,.016.336A1.9,1.9,0,0,1,40.336,31.024ZM0,33H45.456v1H0Z" transform="translate(118 826)" fill="#fff"/>
    <path id="Trazado_1824" data-name="Trazado 1824" d="M508.82.494a.715.715,0,0,1,1.36,0L512.2,6.138a.418.418,0,0,0,.14.192.39.39,0,0,0,.218.08l5.749.267a.732.732,0,0,1,.659.525.783.783,0,0,1-.239.83l-4.5,3.755a.422.422,0,0,0-.131.2.438.438,0,0,0-.005.241l1.534,5.809a.78.78,0,0,1-.273.818.7.7,0,0,1-.828.019l-4.8-3.324a.386.386,0,0,0-.442,0l-4.8,3.324a.7.7,0,0,1-.827-.019.78.78,0,0,1-.273-.818l1.534-5.809a.439.439,0,0,0-.005-.241.42.42,0,0,0-.131-.2l-4.5-3.755a.783.783,0,0,1-.238-.83.732.732,0,0,1,.659-.525l5.749-.267a.39.39,0,0,0,.218-.08.418.418,0,0,0,.14-.192Z" transform="translate(-318 847.001)" fill="#fff" fill-rule="evenodd"/>
    <path id="Trazado_1827" data-name="Trazado 1827" d="M3.768,11.108A2.769,2.769,0,0,0,6.732,8.252,2.641,2.641,0,0,0,3.984,5.516a2.151,2.151,0,0,0-1.92.972H2.016c0-1.644.588-2.8,1.872-2.8A1.293,1.293,0,0,1,5.3,4.736H6.648a2.584,2.584,0,0,0-2.76-2.28c-2.268,0-3.2,2.016-3.2,4.476S1.6,11.108,3.768,11.108ZM3.78,9.884A1.508,1.508,0,0,1,2.2,8.264a1.5,1.5,0,0,1,1.584-1.6A1.489,1.489,0,0,1,5.352,8.276,1.515,1.515,0,0,1,3.78,9.884ZM18.768,4.7a2.147,2.147,0,0,0-1.932.972H16.8A2,2,0,0,0,14.94,4.7a1.969,1.969,0,0,0-1.788.912H13.1L13,4.808H11.784V11h1.368V7.58c0-1.032.552-1.644,1.38-1.644.852,0,1.2.516,1.2,1.356V11h1.356V7.58c0-1.032.492-1.644,1.32-1.644.852,0,1.2.516,1.2,1.356V11h1.368V6.956A2.068,2.068,0,0,0,18.768,4.7Zm6.36,6.408a2.518,2.518,0,0,0,2.688-1.992H26.484a1.258,1.258,0,0,1-1.356.84,1.464,1.464,0,0,1-1.512-1.668H27.9V7.712A2.73,2.73,0,0,0,25.1,4.7c-1.956,0-2.9,1.428-2.9,3.2A2.9,2.9,0,0,0,25.128,11.108Zm-1.5-3.792A1.379,1.379,0,0,1,25.1,5.864,1.326,1.326,0,0,1,26.5,7.316Zm7.848,3.792c1.44,0,2.568-.672,2.568-1.872,0-1.176-.72-1.62-1.8-1.848l-1.056-.2c-.516-.084-.816-.3-.816-.672,0-.456.42-.708,1.032-.708.708,0,1.128.36,1.152.924H33.9c0-1.2-.984-2.028-2.472-2.028s-2.388.78-2.388,1.8a1.833,1.833,0,0,0,1.716,1.824l1.092.2c.564.12.816.36.816.708,0,.432-.408.7-1.188.7s-1.26-.384-1.26-1H28.848C28.884,10.244,29.808,11.108,31.476,11.108Zm6.432,0A2.518,2.518,0,0,0,40.6,9.116H39.264a1.258,1.258,0,0,1-1.356.84A1.464,1.464,0,0,1,36.4,8.288H40.68V7.712a2.73,2.73,0,0,0-2.8-3.012c-1.956,0-2.9,1.428-2.9,3.2A2.9,2.9,0,0,0,37.908,11.108Zm-1.5-3.792a1.379,1.379,0,0,1,1.476-1.452,1.326,1.326,0,0,1,1.392,1.452Zm7.848,3.792c1.44,0,2.568-.672,2.568-1.872,0-1.176-.72-1.62-1.8-1.848l-1.056-.2c-.516-.084-.816-.3-.816-.672,0-.456.42-.708,1.032-.708.708,0,1.128.36,1.152.924H46.68c0-1.2-.984-2.028-2.472-2.028s-2.388.78-2.388,1.8a1.833,1.833,0,0,0,1.716,1.824l1.092.2c.564.12.816.36.816.708,0,.432-.408.7-1.188.7S43,9.548,43,8.936H41.628C41.664,10.244,42.588,11.108,44.256,11.108ZM.876,25.748H2.244V22.256h.048a1.99,1.99,0,0,0,1.764.852c1.668,0,2.58-1.356,2.58-3.2,0-1.932-.984-3.2-2.58-3.2a1.99,1.99,0,0,0-1.764.852H2.244l-.156-.744H.876ZM3.72,21.9C2.628,21.9,2.2,20.972,2.2,19.9s.432-1.992,1.524-1.992c1.116,0,1.536.912,1.536,1.992S4.848,21.9,3.72,21.9Zm6.792,1.212c1.968,0,2.928-1.392,2.928-3.2s-.984-3.2-2.928-3.2-2.928,1.392-2.928,3.2S8.544,23.108,10.512,23.108Zm0-1.212c-1.032,0-1.536-.744-1.536-1.992,0-1.224.492-1.992,1.536-1.992s1.536.756,1.536,1.992S11.556,21.9,10.512,21.9ZM14.784,23H16.1V19.976c0-1.26.54-1.98,1.584-1.98h.528V16.724h-.5A1.664,1.664,0,0,0,16.1,17.792h-.048l-.12-.984H14.784Zm10.392.108c1.44,0,2.568-.672,2.568-1.872,0-1.176-.72-1.62-1.8-1.848l-1.056-.2c-.516-.084-.816-.3-.816-.672,0-.456.42-.708,1.032-.708.708,0,1.128.36,1.152.924H27.6c0-1.2-.984-2.028-2.472-2.028s-2.388.78-2.388,1.8a1.833,1.833,0,0,0,1.716,1.824l1.092.2c.564.12.816.36.816.708,0,.432-.408.7-1.188.7s-1.26-.384-1.26-1H22.548C22.584,22.244,23.508,23.108,25.176,23.108Zm6.432,0c1.968,0,2.928-1.392,2.928-3.2s-.984-3.2-2.928-3.2-2.928,1.392-2.928,3.2S29.64,23.108,31.608,23.108Zm0-1.212c-1.032,0-1.536-.744-1.536-1.992,0-1.224.492-1.992,1.536-1.992s1.536.756,1.536,1.992S32.652,21.9,31.608,21.9ZM35.88,23h1.368V14.12H35.88Zm5.52.108c1.968,0,2.928-1.392,2.928-3.2s-.984-3.2-2.928-3.2-2.928,1.392-2.928,3.2S39.432,23.108,41.4,23.108Zm0-1.212c-1.032,0-1.536-.744-1.536-1.992,0-1.224.492-1.992,1.536-1.992s1.536.756,1.536,1.992S42.444,21.9,41.4,21.9ZM48.936,23h5.556V21.752H50.8V21.7L52.86,19.5c1.032-1.1,1.5-1.764,1.5-2.676a2.422,2.422,0,0,0-2.7-2.364,2.515,2.515,0,0,0-2.748,2.652h1.356A1.285,1.285,0,0,1,51.66,15.68a1.142,1.142,0,0,1,1.3,1.188c0,.66-.348,1.068-1.2,1.992L48.936,21.9Zm9.948.108c2.22,0,3.084-1.824,3.084-4.332s-.864-4.32-3.084-4.32S55.8,16.28,55.8,18.776,56.664,23.108,58.884,23.108Zm0-1.224c-1.32,0-1.68-1.272-1.68-3.108s.372-3.1,1.68-3.1,1.68,1.272,1.68,3.1S60.2,21.884,58.884,21.884Zm8.76-.06a2.162,2.162,0,0,1-2.2-1.536h2.244l.24-1.008H65.244c-.012-.156-.024-.312-.024-.468,0-.132,0-.264.012-.384h2.88l.24-1.008h-2.94a2.2,2.2,0,0,1,2.232-1.632,1.876,1.876,0,0,1,2.064,1.776h1.44a3.26,3.26,0,0,0-3.5-3.072,3.553,3.553,0,0,0-3.708,2.928h-.72v1.008h.576c-.012.12-.012.252-.012.384,0,.156,0,.312.012.468h-.576v1.008h.744a3.549,3.549,0,0,0,3.684,2.82,3.264,3.264,0,0,0,3.5-2.988H69.72A1.914,1.914,0,0,1,67.644,21.824Z" transform="translate(118 864)" fill="#fff"/>
  </g>
</svg>
