<svg xmlns="http://www.w3.org/2000/svg" width="320" height="29" viewBox="0 0 320 29">
  <g id="Grupo_2127" data-name="Grupo 2127" transform="translate(-794 -835)">
    <path id="Trazado_1828" data-name="Trazado 1828" d="M0,0H320V29H0Z" transform="translate(794 835)" fill="#e4b016"/>
    <path id="Trazado_1829" data-name="Trazado 1829" d="M.544-.656A9.815,9.815,0,0,0,4.608.16c2.736,0,4.32-1.744,4.32-3.5,0-1.808-.912-2.848-2.96-3.52L4.176-7.456A1.262,1.262,0,0,1,3.28-8.7a1.406,1.406,0,0,1,1.568-1.5,3.848,3.848,0,0,1,1.712.352,5.01,5.01,0,0,0,1.68,2.1l.416-.208a8.586,8.586,0,0,1-.224-1.984v-.576a29.854,29.854,0,0,0-3.568-.48C2.784-11.008.8-10.1.8-7.808A3.129,3.129,0,0,0,3.248-4.752l1.888.624A1.518,1.518,0,0,1,6.208-2.656,1.734,1.734,0,0,1,4.352-.688a4.144,4.144,0,0,1-1.84-.48A5.812,5.812,0,0,0,.832-3.7L.3-3.456A11.093,11.093,0,0,1,.544-1.3ZM13.232-8.4H12.64l-3.1.688v.32l1.008.176v5.808A2.344,2.344,0,0,0,13.024.16,3.259,3.259,0,0,0,15.456-.88h.08L15.7,0h3.44V-.272l-.992-.352V-8.4h-.592l-3.1.688v.32l1.008.176v5.728a2.028,2.028,0,0,1-1.136.352,1.122,1.122,0,0,1-1.088-.64Zm6.72,7.84A8.019,8.019,0,0,0,23.2.16c1.968,0,3.376-1.12,3.376-2.88,0-1.28-.784-1.984-2.24-2.528l-1.1-.416a1.026,1.026,0,0,1-.688-.992.991.991,0,0,1,1.088-1.056,2.7,2.7,0,0,1,1.056.224,2.843,2.843,0,0,0,1.424,1.456l.256-.144a3.805,3.805,0,0,1-.192-1.168v-.688c-.768,0-1.728-.368-2.848-.368-1.472,0-3.152.768-3.152,2.592a2.544,2.544,0,0,0,2,2.5l1.2.448a1.036,1.036,0,0,1,.784,1.04,1.139,1.139,0,0,1-1.248,1.28A2.9,2.9,0,0,1,21.488-.96,3.36,3.36,0,0,0,20.1-2.8l-.336.144a6.111,6.111,0,0,1,.192,1.6Zm13.7-4.976a4.171,4.171,0,0,0,.64-2.032A4.59,4.59,0,0,0,31.52-8.4,4.121,4.121,0,0,0,27.3-4.064C27.3-1.248,28.944.16,31.408.16a3.484,3.484,0,0,0,3.152-2l-.3-.224a3.342,3.342,0,0,1-2.176.976c-1.168,0-2.08-.8-2.08-3.376,0-2.192.576-3.168,1.616-3.168a1.789,1.789,0,0,1,.608.112,5.872,5.872,0,0,1,.512,1.984Zm8-.016a8.456,8.456,0,0,0,.5-2.768,3.837,3.837,0,0,0-.736-.08,3.4,3.4,0,0,0-2.592,1.248h-.064V-8.4h-.528l-3.264.688v.272c.336.064.8.112,1.168.176v6.64l-1.152.352V0H40.16V-.272c-.416-.1-.912-.24-1.344-.352V-6.416a3.565,3.565,0,0,1,1.232-.7,4.06,4.06,0,0,1,.416,1.568ZM45.856-12l-1.84,2.48.208.224L47.3-10.64,46.128-12ZM46.4-8.4h-.592l-3.1.688v.32l1.008.176V-.624l-.992.352V0h4.672V-.272L46.4-.624Zm4.944-3.344h-.592l-3.1.528v.32l1.008.176V0l.256.208,1.664-.624A3.847,3.847,0,0,0,52.7.16c2.528,0,4.24-1.744,4.24-4.48,0-3.344-1.808-4.08-3.152-4.08a3.716,3.716,0,0,0-2.448,1.024ZM52.48-7.1c.992,0,1.648.688,1.648,2.992,0,2.48-.336,3.536-1.36,3.536a1.854,1.854,0,0,1-1.424-.784V-6.752A1.911,1.911,0,0,1,52.48-7.1ZM64.768-1.952a3.529,3.529,0,0,1-2.3.88c-1.1,0-1.968-.736-2.048-3.056l4.736.08v-.7A3.331,3.331,0,0,0,61.68-8.4a4.011,4.011,0,0,0-3.936,4.336C57.744-1.248,59.36.16,61.792.16a3.56,3.56,0,0,0,3.216-1.9ZM61.616-7.744c.736,0,1.008,1.04,1.008,2.688v.288l-2.208.128C60.416-5.792,60.5-7.744,61.616-7.744Zm4.016.128h1.136V-.864A4.408,4.408,0,0,0,69.6.16,3.522,3.522,0,0,0,72.048-.8l-.256-.336a2.412,2.412,0,0,1-1.3.48,1.5,1.5,0,0,1-1.056-.416V-7.616h2.016V-8.24H69.44v-2.192h-.912l-1.68,2.208-1.216.208Zm13.6,5.664a3.529,3.529,0,0,1-2.3.88c-1.1,0-1.968-.736-2.048-3.056l4.736.08v-.7A3.331,3.331,0,0,0,76.144-8.4a4.011,4.011,0,0,0-3.936,4.336c0,2.816,1.616,4.224,4.048,4.224a3.56,3.56,0,0,0,3.216-1.9ZM76.08-7.744c.736,0,1.008,1.04,1.008,2.688v.288L74.88-4.64C74.88-5.792,74.96-7.744,76.08-7.744ZM87.648-8.4a5.566,5.566,0,0,0-3.68,1.328,3.256,3.256,0,0,0,.688,1.632h.928a5.5,5.5,0,0,1,.576-2.032,1.877,1.877,0,0,1,.832-.208c1.024,0,1.344.592,1.344,1.952v.784a9.686,9.686,0,0,0-4.528,2.016v.912A2.093,2.093,0,0,0,86.192.16,3.1,3.1,0,0,0,88.464-.848,1.807,1.807,0,0,0,90.256.16a2.11,2.11,0,0,0,2.288-1.952l-.432-.128c-.128.48-.432,1.136-.816,1.136-.208,0-.352-.112-.352-.48,0-1.92.048-2.784.048-4.08C90.992-7.424,89.856-8.4,87.648-8.4ZM87.264-.976C86.8-.976,86.4-1.36,86.4-2.3V-3.552a6.94,6.94,0,0,1,1.92-.816c0,.944-.016,1.856-.016,2.7a2.363,2.363,0,0,0,.016.336A1.9,1.9,0,0,1,87.264-.976Zm8.624-10.768-3.1.528v.32l1.008.176v10.1L92.8-.272V0h4.432V-.272L96.48-.624V-6.752A2.028,2.028,0,0,1,97.616-7.1a1.019,1.019,0,0,1,1.152,1.152V-.624L98-.272V0h4.448V-.272l-.992-.352V-5.68c0-2.032-1.184-2.72-2.528-2.72A3.654,3.654,0,0,0,96.48-7.36v-4.384ZM107.328-8.4a4.02,4.02,0,0,0-4.288,4.336A3.862,3.862,0,0,0,107.232.16,4.019,4.019,0,0,0,111.5-4.16,3.855,3.855,0,0,0,107.328-8.4Zm0,7.872c-1.04,0-1.472-1.136-1.472-3.568,0-2.464.336-3.6,1.376-3.6,1.024,0,1.456,1.136,1.456,3.6C108.688-1.664,108.352-.528,107.328-.528Zm11.664-5.024a8.455,8.455,0,0,0,.5-2.768,3.838,3.838,0,0,0-.736-.08,3.4,3.4,0,0,0-2.592,1.248H116.1V-8.4h-.528l-3.264.688v.272c.336.064.8.112,1.168.176v6.64l-1.152.352V0H117.5V-.272c-.416-.1-.912-.24-1.344-.352V-6.416a3.565,3.565,0,0,1,1.232-.7,4.06,4.06,0,0,1,.416,1.568ZM123.968-8.4a5.566,5.566,0,0,0-3.68,1.328,3.256,3.256,0,0,0,.688,1.632h.928a5.5,5.5,0,0,1,.576-2.032,1.877,1.877,0,0,1,.832-.208c1.024,0,1.344.592,1.344,1.952v.784a9.686,9.686,0,0,0-4.528,2.016v.912A2.093,2.093,0,0,0,122.512.16a3.1,3.1,0,0,0,2.272-1.008A1.807,1.807,0,0,0,126.576.16a2.11,2.11,0,0,0,2.288-1.952l-.432-.128c-.128.48-.432,1.136-.816,1.136-.208,0-.352-.112-.352-.48,0-1.92.048-2.784.048-4.08C127.312-7.424,126.176-8.4,123.968-8.4Zm-.384,7.424c-.464,0-.864-.384-.864-1.328V-3.552a6.94,6.94,0,0,1,1.92-.816c0,.944-.016,1.856-.016,2.7a2.363,2.363,0,0,0,.016.336A1.9,1.9,0,0,1,123.584-.976ZM0,1H128.7V2H0Z" transform="translate(970 854)" fill="#fff"/>
    <path id="Trazado_1810" data-name="Trazado 1810" d="M507.237.405a.587.587,0,0,1,1.116,0l1.656,4.631a.343.343,0,0,0,.115.157.32.32,0,0,0,.178.065l4.717.219a.6.6,0,0,1,.541.431.643.643,0,0,1-.2.681l-3.693,3.081a.346.346,0,0,0-.108.163.36.36,0,0,0,0,.2l1.259,4.766a.64.64,0,0,1-.224.671.574.574,0,0,1-.679.016l-3.939-2.727a.317.317,0,0,0-.362,0l-3.939,2.727A.574.574,0,0,1,503,15.47a.64.64,0,0,1-.224-.671l1.259-4.766a.36.36,0,0,0,0-.2.344.344,0,0,0-.108-.163L500.225,6.59a.642.642,0,0,1-.2-.681.6.6,0,0,1,.54-.431l4.717-.219a.32.32,0,0,0,.179-.065.343.343,0,0,0,.115-.157Z" transform="translate(449.077 841.846)" fill="#fff" fill-rule="evenodd"/>
    <path id="Trazado_1830" data-name="Trazado 1830" d="M3.768.108A2.769,2.769,0,0,0,6.732-2.748,2.641,2.641,0,0,0,3.984-5.484a2.151,2.151,0,0,0-1.92.972H2.016c0-1.644.588-2.8,1.872-2.8A1.293,1.293,0,0,1,5.3-6.264H6.648a2.584,2.584,0,0,0-2.76-2.28c-2.268,0-3.2,2.016-3.2,4.476S1.6.108,3.768.108ZM3.78-1.116A1.508,1.508,0,0,1,2.2-2.736a1.5,1.5,0,0,1,1.584-1.6A1.489,1.489,0,0,1,5.352-2.724,1.515,1.515,0,0,1,3.78-1.116ZM18.768-6.3a2.147,2.147,0,0,0-1.932.972H16.8A2,2,0,0,0,14.94-6.3a1.969,1.969,0,0,0-1.788.912H13.1L13-6.192H11.784V0h1.368V-3.42c0-1.032.552-1.644,1.38-1.644.852,0,1.2.516,1.2,1.356V0h1.356V-3.42c0-1.032.492-1.644,1.32-1.644.852,0,1.2.516,1.2,1.356V0h1.368V-4.044A2.068,2.068,0,0,0,18.768-6.3ZM25.128.108a2.518,2.518,0,0,0,2.688-1.992H26.484a1.258,1.258,0,0,1-1.356.84,1.464,1.464,0,0,1-1.512-1.668H27.9v-.576A2.73,2.73,0,0,0,25.1-6.3c-1.956,0-2.9,1.428-2.9,3.2A2.9,2.9,0,0,0,25.128.108Zm-1.5-3.792A1.379,1.379,0,0,1,25.1-5.136,1.326,1.326,0,0,1,26.5-3.684ZM31.476.108c1.44,0,2.568-.672,2.568-1.872,0-1.176-.72-1.62-1.8-1.848l-1.056-.2c-.516-.084-.816-.3-.816-.672,0-.456.42-.708,1.032-.708.708,0,1.128.36,1.152.924H33.9c0-1.2-.984-2.028-2.472-2.028s-2.388.78-2.388,1.8a1.833,1.833,0,0,0,1.716,1.824l1.092.2c.564.12.816.36.816.708,0,.432-.408.7-1.188.7s-1.26-.384-1.26-1H28.848C28.884-.756,29.808.108,31.476.108Zm6.432,0A2.518,2.518,0,0,0,40.6-1.884H39.264a1.258,1.258,0,0,1-1.356.84A1.464,1.464,0,0,1,36.4-2.712H40.68v-.576a2.73,2.73,0,0,0-2.8-3.012c-1.956,0-2.9,1.428-2.9,3.2A2.9,2.9,0,0,0,37.908.108Zm-1.5-3.792a1.379,1.379,0,0,1,1.476-1.452,1.326,1.326,0,0,1,1.392,1.452ZM44.256.108c1.44,0,2.568-.672,2.568-1.872,0-1.176-.72-1.62-1.8-1.848l-1.056-.2c-.516-.084-.816-.3-.816-.672,0-.456.42-.708,1.032-.708.708,0,1.128.36,1.152.924H46.68c0-1.2-.984-2.028-2.472-2.028s-2.388.78-2.388,1.8a1.833,1.833,0,0,0,1.716,1.824l1.092.2c.564.12.816.36.816.708,0,.432-.408.7-1.188.7S43-1.452,43-2.064H41.628C41.664-.756,42.588.108,44.256.108Zm7.4,2.64h1.368V-.744h.048A1.99,1.99,0,0,0,54.84.108c1.668,0,2.58-1.356,2.58-3.2,0-1.932-.984-3.2-2.58-3.2a1.99,1.99,0,0,0-1.764.852h-.048l-.156-.744H51.66ZM54.5-1.1c-1.092,0-1.524-.924-1.524-1.992s.432-1.992,1.524-1.992c1.116,0,1.536.912,1.536,1.992S55.632-1.1,54.5-1.1ZM61.3.108c1.968,0,2.928-1.392,2.928-3.2S63.24-6.3,61.3-6.3s-2.928,1.392-2.928,3.2S59.328.108,61.3.108Zm0-1.212c-1.032,0-1.536-.744-1.536-1.992,0-1.224.492-1.992,1.536-1.992s1.536.756,1.536,1.992S62.34-1.1,61.3-1.1ZM65.568,0h1.32V-3.024c0-1.26.54-1.98,1.584-1.98H69V-6.276h-.5a1.664,1.664,0,0,0-1.608,1.068H66.84l-.12-.984H65.568ZM75.96.108c1.44,0,2.568-.672,2.568-1.872,0-1.176-.72-1.62-1.8-1.848l-1.056-.2c-.516-.084-.816-.3-.816-.672,0-.456.42-.708,1.032-.708.708,0,1.128.36,1.152.924h1.344c0-1.2-.984-2.028-2.472-2.028s-2.388.78-2.388,1.8A1.833,1.833,0,0,0,75.24-2.676l1.092.2c.564.12.816.36.816.708,0,.432-.408.7-1.188.7s-1.26-.384-1.26-1H73.332C73.368-.756,74.292.108,75.96.108Zm6.432,0c1.968,0,2.928-1.392,2.928-3.2s-.984-3.2-2.928-3.2-2.928,1.392-2.928,3.2S80.424.108,82.392.108Zm0-1.212c-1.032,0-1.536-.744-1.536-1.992,0-1.224.492-1.992,1.536-1.992s1.536.756,1.536,1.992S83.436-1.1,82.392-1.1ZM86.664,0h1.368V-8.88H86.664Zm5.52.108c1.968,0,2.928-1.392,2.928-3.2s-.984-3.2-2.928-3.2-2.928,1.392-2.928,3.2S90.216.108,92.184.108Zm0-1.212c-1.032,0-1.536-.744-1.536-1.992,0-1.224.492-1.992,1.536-1.992S93.72-4.332,93.72-3.1,93.228-1.1,92.184-1.1ZM99.72,0h5.556V-1.248h-3.7V-1.3L103.644-3.5c1.032-1.1,1.5-1.764,1.5-2.676a2.422,2.422,0,0,0-2.7-2.364A2.515,2.515,0,0,0,99.7-5.892h1.356a1.285,1.285,0,0,1,1.392-1.428,1.142,1.142,0,0,1,1.3,1.188c0,.66-.348,1.068-1.2,1.992L99.72-1.1Zm9.948.108c2.22,0,3.084-1.824,3.084-4.332s-.864-4.32-3.084-4.32-3.084,1.824-3.084,4.32S107.448.108,109.668.108Zm0-1.224c-1.32,0-1.68-1.272-1.68-3.108s.372-3.1,1.68-3.1,1.68,1.272,1.68,3.1S110.988-1.116,109.668-1.116Zm8.76-.06a2.162,2.162,0,0,1-2.2-1.536h2.244l.24-1.008h-2.688c-.012-.156-.024-.312-.024-.468,0-.132,0-.264.012-.384h2.88l.24-1.008H116.2a2.2,2.2,0,0,1,2.232-1.632,1.876,1.876,0,0,1,2.064,1.776h1.44a3.26,3.26,0,0,0-3.5-3.072A3.553,3.553,0,0,0,114.72-5.58H114v1.008h.576c-.012.12-.012.252-.012.384,0,.156,0,.312.012.468H114v1.008h.744a3.549,3.549,0,0,0,3.684,2.82,3.264,3.264,0,0,0,3.5-2.988H120.5A1.914,1.914,0,0,1,118.428-1.176Z" transform="translate(805 854)" fill="#fff"/>
  </g>
</svg>
